# xmcd CD database file
#
# Track frame offsets:
#	150
#	21836
#	49437
#	80843
#	118058
#	137590
#
# Disc length: 2240 seconds
#
# Revision: 0
# Processed by: cddbd v1.5.2PL0 Copyright (c) Steve Scherf et al.
# Submitted via: CDex 1.51
#
DISCID=5208be06
DTITLE=JOE LEE WILSON - What would it be without you
DYEAR=1900
DGENRE=Jazz
TTITLE0=What would it be without you
TTITLE1=Blue train
TTITLE2=Crucificado
TTITLE3=Parting
TTITLE4=The Lady
TTITLE5=Nice and Easy - such a lovely lady
EXTD=
EXTT0=
EXTT1=
EXTT2=
EXTT3=
EXTT4=
EXTT5=
PLAYORDER=
